<svg id="visual" viewBox="0 0 900 100" width="900" height="100" xmlns="http://www.w3.org/2000/svg" xmlns:xlink="http://www.w3.org/1999/xlink" version="1.1"><rect x="0" y="0" width="900" height="124" fill="#190019"></rect><defs><linearGradient id="grad1_0" x1="86.2%" y1="0%" x2="100%" y2="100%"><stop offset="-95.16129032258065%" stop-color="#522b58" stop-opacity="1"></stop><stop offset="195.16129032258067%" stop-color="#522b58" stop-opacity="1"></stop></linearGradient></defs><defs><linearGradient id="grad1_1" x1="86.2%" y1="0%" x2="100%" y2="100%"><stop offset="-95.16129032258065%" stop-color="#522b58" stop-opacity="1"></stop><stop offset="195.16129032258067%" stop-color="#190019" stop-opacity="1"></stop></linearGradient></defs><defs><linearGradient id="grad2_0" x1="0%" y1="0%" x2="13.8%" y2="100%"><stop offset="-95.16129032258065%" stop-color="#522b58" stop-opacity="1"></stop><stop offset="195.16129032258067%" stop-color="#522b58" stop-opacity="1"></stop></linearGradient></defs><defs><linearGradient id="grad2_1" x1="0%" y1="0%" x2="13.8%" y2="100%"><stop offset="-95.16129032258065%" stop-color="#190019" stop-opacity="1"></stop><stop offset="195.16129032258067%" stop-color="#522b58" stop-opacity="1"></stop></linearGradient></defs><g transform="translate(900, 0)"><path d="M0 111.6C-13.6 98.6 -27.2 85.6 -45 77.9C-62.8 70.3 -84.8 67.9 -96.6 55.8C-108.5 43.7 -110 21.8 -111.6 0L0 0Z" fill="#331837"></path><path d="M0 55.8C-6.8 49.3 -13.6 42.8 -22.5 39C-31.4 35.1 -42.4 34 -48.3 27.9C-54.2 21.8 -55 10.9 -55.8 0L0 0Z" fill="#522b58"></path></g><g transform="translate(0, 124)"><path d="M0 -111.6C17.1 -104.6 34.1 -97.6 51.5 -89.2C68.9 -80.8 86.6 -70.9 96.6 -55.8C106.7 -40.7 109.2 -20.3 111.6 0L0 0Z" fill="#331837"></path><path d="M0 -55.8C8.5 -52.3 17.1 -48.8 25.7 -44.6C34.4 -40.4 43.3 -35.5 48.3 -27.9C53.4 -20.3 54.6 -10.2 55.8 0L0 0Z" fill="#522b58"></path></g></svg>