<svg id="visual" viewBox="0 0 248 100" width="248" height="100" xmlns="http://www.w3.org/2000/svg" xmlns:xlink="http://www.w3.org/1999/xlink" version="1.1"><rect x="0" y="0" width="248" height="124" fill="#190019"></rect><defs><linearGradient id="grad1_0" x1="50%" y1="0%" x2="100%" y2="100%"><stop offset="10%" stop-color="#522b58" stop-opacity="1"></stop><stop offset="90%" stop-color="#522b58" stop-opacity="1"></stop></linearGradient></defs><defs><linearGradient id="grad1_1" x1="50%" y1="0%" x2="100%" y2="100%"><stop offset="10%" stop-color="#522b58" stop-opacity="1"></stop><stop offset="90%" stop-color="#190019" stop-opacity="1"></stop></linearGradient></defs><defs><linearGradient id="grad2_0" x1="0%" y1="0%" x2="50%" y2="100%"><stop offset="10%" stop-color="#522b58" stop-opacity="1"></stop><stop offset="90%" stop-color="#522b58" stop-opacity="1"></stop></linearGradient></defs><defs><linearGradient id="grad2_1" x1="0%" y1="0%" x2="50%" y2="100%"><stop offset="10%" stop-color="#190019" stop-opacity="1"></stop><stop offset="90%" stop-color="#522b58" stop-opacity="1"></stop></linearGradient></defs><g transform="translate(248, 0)"><path d="M0 111.6C-21 109.6 -42.1 107.5 -55.8 96.6C-69.5 85.8 -75.9 66.1 -84 48.5C-92.1 30.9 -101.8 15.5 -111.6 0L0 0Z" fill="#331837"></path><path d="M0 55.8C-10.5 54.8 -21 53.8 -27.9 48.3C-34.8 42.9 -38 33 -42 24.3C-46 15.5 -50.9 7.7 -55.8 0L0 0Z" fill="#522b58"></path></g><g transform="translate(0, 124)"><path d="M0 -111.6C18.9 -107.8 37.9 -104.1 55 -95.3C72.1 -86.4 87.5 -72.5 96.6 -55.8C105.8 -39.1 108.7 -19.5 111.6 0L0 0Z" fill="#331837"></path><path d="M0 -55.8C9.5 -53.9 18.9 -52 27.5 -47.6C36.1 -43.2 43.8 -36.3 48.3 -27.9C52.9 -19.5 54.3 -9.8 55.8 0L0 0Z" fill="#522b58"></path></g></svg>