<svg id="visual" viewBox="0 0 482 124" width="482" height="124" xmlns="http://www.w3.org/2000/svg" xmlns:xlink="http://www.w3.org/1999/xlink" version="1.1"><rect x="0" y="0" width="482" height="124" fill="#190019"></rect><defs><linearGradient id="grad1_0" x1="74.3%" y1="0%" x2="100%" y2="100%"><stop offset="-27.74193548387097%" stop-color="#522b58" stop-opacity="1"></stop><stop offset="127.741935483871%" stop-color="#522b58" stop-opacity="1"></stop></linearGradient></defs><defs><linearGradient id="grad1_1" x1="74.3%" y1="0%" x2="100%" y2="100%"><stop offset="-27.74193548387097%" stop-color="#522b58" stop-opacity="1"></stop><stop offset="127.741935483871%" stop-color="#190019" stop-opacity="1"></stop></linearGradient></defs><defs><linearGradient id="grad2_0" x1="0%" y1="0%" x2="25.7%" y2="100%"><stop offset="-27.74193548387097%" stop-color="#522b58" stop-opacity="1"></stop><stop offset="127.741935483871%" stop-color="#522b58" stop-opacity="1"></stop></linearGradient></defs><defs><linearGradient id="grad2_1" x1="0%" y1="0%" x2="25.7%" y2="100%"><stop offset="-27.74193548387097%" stop-color="#190019" stop-opacity="1"></stop><stop offset="127.741935483871%" stop-color="#522b58" stop-opacity="1"></stop></linearGradient></defs><g transform="translate(482, 0)"><path d="M0 111.6C-21.8 110 -43.7 108.5 -55.8 96.6C-67.9 84.8 -70.3 62.8 -77.9 45C-85.6 27.2 -98.6 13.6 -111.6 0L0 0Z" fill="#331837"></path><path d="M0 55.8C-10.9 55 -21.8 54.2 -27.9 48.3C-34 42.4 -35.1 31.4 -39 22.5C-42.8 13.6 -49.3 6.8 -55.8 0L0 0Z" fill="#522b58"></path></g><g transform="translate(0, 124)"><path d="M0 -111.6C20.2 -109.1 40.5 -106.6 55.8 -96.6C71.1 -86.7 81.6 -69.3 90.1 -52C98.6 -34.7 105.1 -17.3 111.6 0L0 0Z" fill="#331837"></path><path d="M0 -55.8C10.1 -54.5 20.2 -53.3 27.9 -48.3C35.6 -43.4 40.8 -34.7 45 -26C49.3 -17.3 52.5 -8.7 55.8 0L0 0Z" fill="#522b58"></path></g></svg>