<svg id="visual" viewBox="0 0 960 540" width="960" height="540" xmlns="http://www.w3.org/2000/svg" xmlns:xlink="http://www.w3.org/1999/xlink" version="1.1"><path d="M0 521L22.8 519C45.7 517 91.3 513 137 511.5C182.7 510 228.3 511 274 513.7C319.7 516.3 365.3 520.7 411.2 520.8C457 521 503 517 548.8 514.8C594.7 512.7 640.3 512.3 686 510.5C731.7 508.7 777.3 505.3 823 503.5C868.7 501.7 914.3 501.3 937.2 501.2L960 501L960 541L937.2 541C914.3 541 868.7 541 823 541C777.3 541 731.7 541 686 541C640.3 541 594.7 541 548.8 541C503 541 457 541 411.2 541C365.3 541 319.7 541 274 541C228.3 541 182.7 541 137 541C91.3 541 45.7 541 22.8 541L0 541Z" fill="#522b58" stroke-linecap="round" stroke-linejoin="miter"></path></svg>