<?xml version="1.0" standalone="no"?>
<!DOCTYPE svg PUBLIC "-//W3C//DTD SVG 20010904//EN"
 "http://www.w3.org/TR/2001/REC-SVG-20010904/DTD/svg10.dtd">
<svg version="1.0" xmlns="http://www.w3.org/2000/svg"
 width="1080.000000pt" height="382.000000pt" viewBox="0 0 1080.000000 382.000000"
 preserveAspectRatio="xMidYMid meet">

<g transform="translate(0.000000,382.000000) scale(0.100000,-0.100000)"
fill="#fbe4d8" stroke="none">
<path d="M3510 3393 c14 -16 92 -97 175 -180 l150 -153 218 0 c256 0 318 -10
452 -75 164 -80 260 -176 340 -340 56 -116 70 -177 70 -305 0 -131 -14 -188
-77 -318 -43 -90 -61 -115 -136 -191 -70 -69 -104 -95 -172 -128 -141 -69
-174 -75 -451 -80 l-247 -5 -173 -176 -174 -177 395 -3 c442 -3 523 4 672 58
452 164 747 597 725 1065 -10 207 -70 386 -187 561 -125 185 -339 347 -552
418 -148 50 -221 56 -652 56 l-399 0 23 -27z m932 -70 c362 -101 629 -362 733
-718 38 -128 45 -321 17 -455 -40 -194 -125 -357 -257 -499 -135 -142 -272
-226 -470 -287 l-90 -28 -365 -4 -365 -3 109 109 108 109 227 6 c187 4 240 8
306 26 227 60 405 208 510 424 59 121 77 205 77 342 -1 139 -25 234 -89 358
-82 155 -233 295 -388 360 -123 51 -167 58 -411 64 l-232 6 -108 109 -109 109
360 -4 c330 -3 366 -5 437 -24z"/>
<path d="M5464 3241 l179 -179 246 -4 c234 -4 250 -6 326 -31 117 -39 199 -91
295 -187 142 -142 210 -303 210 -499 -1 -285 -157 -532 -415 -652 -119 -56
-150 -61 -416 -66 l-246 -5 -179 -179 -179 -179 406 0 c319 0 425 3 494 15
207 36 398 133 557 283 435 409 456 1086 47 1517 -172 181 -372 288 -613 330
-69 12 -176 15 -490 15 l-401 0 179 -179z m791 80 c118 -32 287 -119 382 -196
178 -143 299 -334 355 -562 32 -130 30 -332 -5 -463 -75 -288 -268 -531 -522
-659 -197 -98 -274 -111 -688 -111 l-332 0 109 109 108 109 227 5 c270 6 327
17 468 88 197 98 334 264 405 489 30 98 33 308 4 410 -59 214 -221 408 -421
506 -137 66 -186 75 -450 81 l-230 5 -102 101 c-57 56 -103 105 -103 110 0 5
161 7 358 4 329 -4 363 -6 437 -26z"/>
<path d="M7575 3240 l180 -180 542 0 543 0 0 180 0 180 -722 0 -723 0 180
-180z m1195 0 l0 -110 -493 0 -492 0 -110 110 -110 110 603 0 602 0 0 -110z"/>
<path d="M9160 3415 c0 -10 1070 -2145 1075 -2145 3 0 49 89 104 198 l99 197
-440 878 -440 877 -199 0 c-109 0 -199 -2 -199 -5z m779 -906 l424 -842 -59
-119 c-32 -66 -62 -122 -66 -124 -6 -4 -968 1905 -968 1921 0 3 55 5 123 5
l123 0 423 -841z"/>
<path d="M1443 3119 c-141 -27 -274 -139 -325 -271 -11 -30 -26 -106 -33 -176
-17 -159 -47 -226 -142 -321 -89 -88 -162 -119 -313 -131 -64 -5 -128 -17
-163 -30 -192 -72 -313 -284 -278 -486 39 -222 218 -374 442 -374 235 0 439
199 439 429 0 72 23 168 55 231 38 74 128 161 210 201 68 33 72 34 195 34 120
0 128 -1 193 -32 76 -36 166 -116 204 -181 35 -58 63 -154 63 -211 0 -65 17
-153 41 -209 121 -282 498 -352 717 -133 174 174 174 456 0 630 -89 89 -155
114 -370 140 -105 12 -189 53 -265 127 -88 86 -121 162 -134 306 -12 130 -34
201 -85 275 -98 142 -281 216 -451 182z"/>
<path d="M7400 2340 l0 -180 720 0 720 0 0 180 0 180 -720 0 -720 0 0 -180z
m1370 0 l0 -110 -650 0 -650 0 0 110 0 110 650 0 650 0 0 -110z"/>
<path d="M7578 1454 c-98 -91 -178 -172 -178 -180 0 -12 100 -14 720 -14 l720
0 0 180 0 180 -542 0 -543 -1 -177 -165z m1192 -14 l0 -110 -610 0 c-335 0
-610 2 -610 4 0 2 52 51 116 110 l116 106 494 0 494 0 0 -110z"/>
<path d="M1428 1300 c-193 -49 -337 -233 -338 -430 0 -124 49 -238 141 -325
171 -163 427 -165 603 -5 98 90 156 239 141 364 -18 165 -108 294 -253 364
-65 31 -84 35 -165 38 -51 2 -109 -1 -129 -6z"/>
<path d="M8060 670 c-10 -18 -8 -19 19 -14 18 4 38 0 54 -11 20 -13 30 -14 46
-5 12 6 21 17 21 25 0 18 -5 19 -30 3 -15 -10 -22 -9 -38 5 -25 23 -59 22 -72
-3z"/>
<path d="M3505 580 c-12 -19 6 -30 50 -30 l44 0 3 -137 c3 -130 4 -138 23
-138 19 0 20 8 23 138 l3 137 49 0 c43 0 50 3 50 20 0 19 -7 20 -119 20 -69 0
-122 -4 -126 -10z"/>
<path d="M3830 429 c0 -147 1 -160 18 -157 13 2 18 15 20 61 l3 57 39 0 c37 0
40 -3 72 -60 21 -38 39 -60 50 -60 24 0 23 5 -9 66 l-27 52 27 23 c32 28 44
80 28 122 -15 38 -65 57 -151 57 l-70 0 0 -161z m170 101 c24 -24 25 -48 4
-78 -13 -19 -24 -22 -75 -22 l-59 0 0 60 0 60 55 0 c42 0 60 -5 75 -20z"/>
<path d="M4177 438 c-32 -84 -57 -156 -57 -160 0 -5 9 -8 19 -8 13 0 23 11 31
35 l12 35 73 0 73 0 12 -35 c8 -24 18 -35 31 -35 10 0 19 4 19 8 0 4 -26 75
-58 157 -78 203 -80 203 -155 3z m101 35 c11 -32 23 -66 27 -75 6 -16 1 -18
-49 -18 -31 0 -56 2 -56 4 0 8 52 146 55 146 2 0 12 -26 23 -57z"/>
<path d="M4465 580 c-13 -22 9 -30 81 -30 41 0 74 -2 74 -5 0 -3 -36 -57 -81
-120 -45 -64 -79 -123 -77 -132 3 -16 16 -18 108 -18 91 0 105 2 108 17 3 15
-8 18 -82 20 l-86 3 80 115 c44 63 80 125 80 137 0 22 -3 23 -99 23 -56 0
-103 -4 -106 -10z"/>
<path d="M4770 430 l0 -161 103 3 c83 2 102 6 102 18 0 12 -17 16 -82 18 l-83
3 0 54 0 55 75 0 c68 0 75 2 75 20 0 18 -7 20 -75 20 l-75 0 0 45 0 44 83 3
c65 2 82 6 82 18 0 12 -19 16 -102 18 l-103 3 0 -161z"/>
<path d="M5062 433 c3 -150 4 -158 23 -158 19 0 20 8 25 117 l5 117 69 -119
c57 -101 72 -120 92 -120 l24 0 0 160 c0 152 -1 160 -20 160 -18 0 -20 -8 -22
-122 l-3 -123 -73 123 c-62 104 -76 122 -98 122 l-25 0 3 -157z"/>
<path d="M5395 578 c-3 -7 -4 -79 -3 -158 l3 -145 72 1 c54 1 80 7 106 23 89
55 89 211 -1 264 -42 24 -169 36 -177 15z m145 -43 c80 -42 77 -176 -4 -210
-20 -8 -49 -15 -66 -15 l-30 0 0 120 0 120 35 0 c20 0 49 -7 65 -15z"/>
<path d="M5802 573 c-152 -75 -96 -303 74 -303 52 0 117 41 139 86 22 47 17
130 -11 167 -45 61 -135 83 -202 50z m128 -38 c58 -30 77 -112 40 -173 -22
-36 -54 -52 -107 -52 -27 0 -43 8 -69 34 -30 30 -34 41 -34 84 0 97 85 151
170 107z"/>
<path d="M6355 579 c-77 -44 -53 -134 42 -159 66 -18 93 -36 93 -64 0 -27 -14
-41 -51 -50 -32 -7 -85 10 -93 30 -5 12 -46 21 -46 9 0 -18 26 -55 47 -64 56
-25 162 -5 177 34 25 66 -10 112 -103 138 -50 14 -62 21 -67 42 -9 37 11 55
62 55 33 0 47 -5 56 -20 15 -23 48 -27 48 -6 0 34 -36 59 -91 63 -30 2 -63 -2
-74 -8z"/>
<path d="M6684 565 c-145 -87 -71 -309 98 -293 85 9 142 72 142 158 0 125
-133 199 -240 135z m136 -30 c43 -22 60 -53 60 -108 0 -43 -5 -54 -35 -84 -33
-33 -38 -35 -87 -31 -68 7 -108 47 -108 109 0 99 86 157 170 114z"/>
<path d="M7015 578 c-3 -8 -4 -79 -3 -158 l3 -145 100 0 c87 0 100 2 103 18 3
15 -6 17 -77 17 l-80 0 -3 137 c-3 122 -5 138 -21 141 -9 2 -19 -3 -22 -10z"/>
<path d="M7290 473 c0 -100 3 -123 20 -151 23 -38 54 -52 117 -52 38 0 50 5
79 34 l34 34 0 126 c0 119 -1 126 -20 126 -19 0 -20 -7 -20 -114 0 -99 -3
-117 -21 -140 -26 -32 -84 -36 -120 -7 -22 18 -24 27 -27 140 -3 111 -5 121
-23 121 -18 0 -19 -8 -19 -117z"/>
<path d="M7714 576 c-66 -29 -106 -117 -85 -186 14 -48 51 -94 90 -109 21 -9
27 -18 24 -32 -4 -14 0 -19 16 -19 27 0 28 -20 1 -27 -11 -3 -20 -9 -20 -14 0
-13 44 -11 58 3 17 17 15 47 -3 54 -23 9 -18 24 8 24 12 0 37 9 55 20 28 17
32 23 22 35 -10 13 -16 12 -43 -1 -45 -24 -105 -13 -139 26 -22 24 -28 40 -28
78 0 54 18 85 60 107 38 20 75 19 111 -2 26 -15 31 -16 39 -3 12 19 4 29 -36
46 -42 17 -90 17 -130 0z"/>
<path d="M8044 565 c-54 -32 -78 -81 -72 -150 8 -96 75 -152 170 -143 27 3 62
14 76 25 32 23 72 97 72 133 0 14 -10 46 -22 70 -43 85 -143 114 -224 65z
m168 -54 c23 -26 28 -41 28 -82 0 -45 -4 -55 -34 -85 -36 -36 -78 -44 -130
-24 -56 21 -82 110 -51 170 35 68 135 79 187 21z"/>
<path d="M8374 577 c-2 -7 -3 -78 -2 -157 l3 -145 103 -3 c97 -3 102 -2 102
18 0 18 -6 20 -80 20 l-80 0 0 55 0 55 76 0 c66 0 75 2 72 18 -3 14 -16 18
-76 20 l-72 3 0 44 0 45 80 0 c73 0 80 2 80 20 0 19 -7 20 -100 20 -73 0 -102
-4 -106 -13z"/>
<path d="M8698 575 c-35 -20 -47 -74 -25 -109 9 -13 38 -32 64 -41 26 -9 59
-22 73 -29 27 -13 38 -49 21 -70 -26 -31 -122 -24 -135 10 -3 8 -14 14 -25 14
-26 0 -17 -34 18 -61 22 -18 37 -20 90 -17 74 5 101 27 101 85 0 46 -33 77
-97 92 -66 16 -91 41 -75 76 10 21 18 25 57 25 33 0 50 -5 62 -20 22 -25 43
-26 43 -2 0 50 -113 80 -172 47z"/>
<path d="M8964 316 c-10 -26 4 -48 28 -44 17 2 23 10 23 28 0 18 -6 26 -23 28
-13 2 -25 -3 -28 -12z"/>
</g>
</svg>
